<?xml version="1.0" encoding="utf-8"?>
<!-- Generator: Adobe Illustrator 16.0.0, SVG Export Plug-In . SVG Version: 6.00 Build 0)  -->
<!DOCTYPE svg PUBLIC "-//W3C//DTD SVG 1.0//EN" "http://www.w3.org/TR/2001/REC-SVG-20010904/DTD/svg10.dtd">
<svg version="1.0" id="Layer_1" xmlns="http://www.w3.org/2000/svg" xmlns:xlink="http://www.w3.org/1999/xlink" x="0px" y="0px"
	 width="100px" height="100px" viewBox="0 0 100 100" enable-background="new 0 0 100 100" xml:space="preserve">
<path fill="#D9AD94" stroke="#454B63" stroke-width="1.5" stroke-linecap="round" stroke-linejoin="round" stroke-miterlimit="10" d="
	M63.946,61.294c-0.429,1.308-0.933,2.54-1.488,3.701L90,64.998l-8.909-3.694c-0.744-0.31-1.418-0.761-1.979-1.318
	c-1.103-1.104-1.787-2.632-1.787-4.315v-1.48c-1.578,0.951-3.291,1.48-5.082,1.48c-1.168,0-2.295-0.245-3.379-0.663
	C68.323,58.542,66.343,61.188,63.946,61.294z"/>
<path fill="#454B63" stroke="#454B63" stroke-width="1.5" stroke-linecap="round" stroke-linejoin="round" stroke-miterlimit="10" d="
	M65.53,48.213c-3.703,0-6.708-3.004-6.708-6.711c-4.148,4.146-9.878,6.711-16.208,6.711H34.47v-4.796
	c0-7.408,6.008-13.418,13.418-13.418c3.102,0,5.945,1.058,8.214,2.821c0.834-0.37,1.746-0.584,2.715-0.584
	c3.709,0,6.713,3.004,6.713,6.711v9.262L65.53,48.213L65.53,48.213z"/>
<path fill="#D9AD94" stroke="#454B63" stroke-width="1.5" stroke-linecap="round" stroke-linejoin="round" stroke-miterlimit="10" d="
	M30.459,84.999l9.805-4.062c0.82-0.342,1.559-0.838,2.178-1.453c1.213-1.215,1.964-2.893,1.964-4.745v-1.628
	c1.736,1.051,3.62,1.631,5.595,1.631c1.971,0,3.856-0.58,5.592-1.631v1.628c0,1.854,0.75,3.53,1.963,4.745
	c0.621,0.615,1.361,1.111,2.179,1.453L69.54,85L30.459,84.999z"/>
<path fill="#BD9781" d="M55.594,73.111c-1.736,1.051-3.621,1.631-5.592,1.631c-1.975,0-3.858-0.58-5.595-1.631v1.628
	c0,0.786-0.143,1.538-0.391,2.239c1.882,0.979,3.893,1.514,5.986,1.514c2.09,0,4.1-0.535,5.983-1.514
	c-0.248-0.701-0.392-1.453-0.392-2.239V73.111z"/>
<path fill="#D9AD94" stroke="#454B63" stroke-width="1.5" stroke-linecap="round" stroke-linejoin="round" stroke-miterlimit="10" d="
	M36.055,61.294c-2.396-0.108-4.378-2.752-4.917-6.286c-1.085,0.42-2.212,0.666-3.376,0.666c-1.795,0-3.51-0.529-5.088-1.48v1.479
	c0,1.686-0.679,3.212-1.785,4.313c-0.564,0.559-1.232,1.012-1.98,1.318L10,64.998h27.543C36.985,63.837,36.479,62.604,36.055,61.294
	z"/>
<path fill="#BD9781" d="M22.23,57.955c1.818,0.947,3.763,1.468,5.785,1.468c1.488,0,2.93-0.313,4.317-0.845
	c-0.57-0.999-0.988-2.219-1.194-3.57c-1.085,0.42-2.212,0.666-3.376,0.666c-1.795,0-3.51-0.529-5.088-1.48v1.479
	C22.674,56.479,22.515,57.249,22.23,57.955z"/>
<path fill="#FCBC69" stroke="#454B63" stroke-width="1.5" stroke-linecap="round" stroke-linejoin="round" stroke-miterlimit="10" d="
	M22.674,54.191L22.674,54.191c-3.417,3.419-7.8,5.267-12.268,5.588c2.945-4.751,4.675-10.331,4.675-16.331
	C16.674,48.351,19.38,52.205,22.674,54.191z"/>
<path fill="#DAA35C" d="M19.638,56.652c1.072-0.706,2.094-1.519,3.037-2.461c-3.294-1.986-6-5.841-7.593-10.743
	c0,2.47-0.308,4.862-0.857,7.161C15.731,53.109,17.569,55.153,19.638,56.652z"/>
<path fill="#D9AD94" stroke="#454B63" stroke-width="1.5" stroke-linecap="round" stroke-linejoin="round" stroke-miterlimit="10" d="
	M13.642,31.556c-1.84,0.654-3.17,2.392-3.17,4.458c0,4.046,2.058,7.321,4.609,7.436c2.356,7.252,7.142,12.226,12.677,12.226
	c1.168,0,2.299-0.233,3.384-0.651c-0.093-0.613-0.159-1.246-0.159-1.905c0-2.274,1.461-4.188,3.488-4.903v-4.796
	c0-3.721,1.525-7.078,3.977-9.507l0,0v-0.021c-2.408-1.126-4.555-2.883-6.141-5.255c-5.152,5.154-11.905,7.732-18.665,7.732V31.556z
	"/>
<path fill="#FCBC69" stroke="#454B63" stroke-width="1.5" stroke-linecap="round" stroke-linejoin="round" stroke-miterlimit="10" d="
	M27.731,15.001c-7.783,0.015-14.089,6.33-14.089,14.115v2.438v4.811c6.759,0,13.511-2.579,18.665-7.732
	C32.306,23.511,30.59,18.802,27.731,15.001L27.731,15.001z"/>
<path fill="#FCBC69" stroke="#454B63" stroke-width="1.5" stroke-linecap="round" stroke-linejoin="round" stroke-miterlimit="10" d="
	M27.731,15.001c0.011,0,0.02-0.001,0.027-0.001c7.8,0,14.119,6.321,14.119,14.116v2.317c-1.273,0.641-2.428,1.484-3.431,2.476
	v-0.021c-2.408-1.126-4.555-2.883-6.141-5.255C32.306,23.511,30.59,18.802,27.731,15.001L27.731,15.001z"/>
<path fill="#DAA35C" d="M28.624,16.286c4.867,2.229,8.253,7.13,8.253,12.83v3.918c0.508,0.313,1.031,0.603,1.569,0.854v0.021
	c1.003-0.992,2.157-1.835,3.431-2.476v-2.317C41.877,21.321,35.559,15,27.758,15c-0.008,0-0.017,0.001-0.027,0.001l0,0
	C28.044,15.417,28.337,15.849,28.624,16.286z"/>
<path fill="#E1E1EA" stroke="#454B63" stroke-width="1.5" stroke-linecap="round" stroke-linejoin="round" stroke-miterlimit="10" d="
	M67.854,27.708c-2.269-2.198-3.677-5.272-3.677-8.674v-1.495C66.464,15.942,69.241,15,72.241,15c7.799,0,14.118,6.319,14.118,14.113
	v2.019c0,0.144-0.021,0.282-0.027,0.424c-0.072,1.678-0.539,3.251-1.33,4.616c-1.747-3.01-4.995-5.04-8.727-5.04
	C72.999,31.132,70.03,29.823,67.854,27.708z"/>
<path fill="#C3C4CD" d="M72.241,15c-0.857,0-1.693,0.085-2.511,0.232c6.609,1.177,11.63,6.939,11.63,13.881v2.019
	c0,0.144-0.023,0.282-0.029,0.424c-0.015,0.305-0.053,0.601-0.092,0.896c1.559,0.888,2.862,2.171,3.763,3.722
	c0.791-1.365,1.258-2.938,1.33-4.616c0.006-0.142,0.027-0.279,0.027-0.424v-2.019C86.359,21.319,80.04,15,72.241,15z"/>
<path fill="#D9AD94" stroke="#454B63" stroke-width="1.5" stroke-linecap="round" stroke-linejoin="round" stroke-miterlimit="10" d="
	M86.332,31.556h0.027c1.844,0.651,3.17,2.391,3.17,4.458c0,4.045-2.053,7.321-4.609,7.436c-2.359,7.252-7.146,12.223-12.679,12.223
	c-1.168,0-2.297-0.232-3.384-0.648c0.095-0.613,0.158-1.246,0.158-1.905c0-2.274-1.461-4.188-3.485-4.907v-9.262
	c0-2.065-0.935-3.91-2.4-5.141c2.289-1.316,4.021-3.488,4.724-6.098c2.178,2.115,5.146,3.424,8.424,3.424
	c3.729,0,6.979,2.03,8.726,5.04C85.793,34.807,86.26,33.234,86.332,31.556z"/>
<path fill="#E1E1EA" stroke="#454B63" stroke-width="1.5" stroke-linecap="round" stroke-linejoin="round" stroke-miterlimit="10" d="
	M58.818,32.236c0.215,0,0.426,0.012,0.633,0.031c0.143,0.015,0.279,0.037,0.418,0.059c0.055,0.01,0.111,0.016,0.168,0.026
	c1.162,0.214,2.222,0.724,3.093,1.454l0,0c2.289-1.315,4.021-3.487,4.724-6.098c-2.269-2.198-3.677-5.272-3.677-8.674v-1.495
	c-3.657,2.551-6.054,6.781-6.054,11.574v2.019c0,0.385,0.027,0.765,0.07,1.139C58.398,32.251,58.605,32.236,58.818,32.236z"/>
<path fill="#D9AD94" stroke="#454B63" stroke-width="1.5" stroke-linecap="round" stroke-linejoin="round" stroke-miterlimit="10" d="
	M65.53,48.213c-3.703,0-6.708-3.004-6.708-6.711c-4.148,4.146-9.878,6.711-16.208,6.711H34.47c-2.026,0.715-3.488,2.629-3.488,4.903
	c0,4.448,2.261,8.052,5.072,8.178c2.591,7.978,7.855,13.448,13.947,13.448c6.088,0,11.353-5.471,13.945-13.448
	c2.811-0.126,5.069-3.729,5.069-8.178c0-2.274-1.461-4.188-3.485-4.907V48.213z"/>
<path fill="#BD9781" d="M77.771,57.955c-0.285-0.707-0.447-1.479-0.447-2.286v-1.479c-1.578,0.951-3.291,1.48-5.082,1.48
	c-1.168,0-2.295-0.245-3.379-0.663c-0.539,3.534-2.521,6.179-4.916,6.286c-0.428,1.307-0.933,2.54-1.488,3.701h2.762
	c0.219-0.506,0.428-1.025,0.627-1.559c1.804-0.65,3.31-2.153,4.316-4.187c0.6,0.101,1.207,0.171,1.826,0.171
	C74.011,59.422,75.952,58.902,77.771,57.955z"/>
<path fill="#BD9781" d="M68.03,46.68v-7.731c0-2.628-1.113-4.996-2.886-6.677c-0.604,0.589-1.278,1.112-2.016,1.536
	c1.467,1.231,2.4,3.076,2.4,5.142v9.262c2.024,0.719,3.485,2.633,3.485,4.907c0,0.659-0.063,1.292-0.157,1.904
	c0.793,0.306,1.612,0.51,2.453,0.599c0.131-0.801,0.204-1.638,0.204-2.503C71.518,50.492,70.169,48.085,68.03,46.68z"/>
<path fill="#C3C4CD" d="M65.146,32.271c-1.65-1.565-3.879-2.534-6.327-2.534c-0.234,0-0.466,0.026-0.695,0.045v1.351
	c0,0.385,0.027,0.765,0.07,1.139c0.204-0.02,0.411-0.034,0.625-0.034c0.215,0,0.426,0.012,0.633,0.031
	c0.143,0.015,0.278,0.037,0.418,0.059c0.055,0.01,0.11,0.016,0.168,0.026c1.162,0.214,2.222,0.724,3.093,1.454
	C63.866,33.382,64.54,32.86,65.146,32.271z"/>
<path fill="none" stroke="#454B63" stroke-width="1.5" stroke-linecap="round" stroke-linejoin="round" stroke-miterlimit="10" d="
	M27.731,15.001c0.011,0,0.02-0.001,0.027-0.001c7.8,0,14.119,6.321,14.119,14.116v2.317c-1.273,0.641-2.428,1.484-3.431,2.476
	v-0.021c-2.408-1.126-4.555-2.883-6.141-5.255C32.306,23.511,30.59,18.802,27.731,15.001L27.731,15.001z"/>
<path fill="none" stroke="#454B63" stroke-width="1.5" stroke-linecap="round" stroke-linejoin="round" stroke-miterlimit="10" d="
	M67.854,27.708c-2.269-2.198-3.677-5.272-3.677-8.674v-1.495C66.464,15.942,69.241,15,72.241,15c7.799,0,14.118,6.319,14.118,14.113
	v2.019c0,0.144-0.021,0.282-0.027,0.424c-0.072,1.678-0.539,3.251-1.33,4.616c-1.747-3.01-4.995-5.04-8.727-5.04
	C72.999,31.132,70.03,29.823,67.854,27.708z"/>
<path fill="none" stroke="#454B63" stroke-width="1.5" stroke-linecap="round" stroke-linejoin="round" stroke-miterlimit="10" d="
	M30.459,84.999l9.805-4.062c0.82-0.342,1.559-0.838,2.178-1.453c1.213-1.215,1.964-2.893,1.964-4.745v-1.628
	c1.736,1.051,3.62,1.631,5.595,1.631c1.971,0,3.856-0.58,5.592-1.631v1.628c0,1.854,0.75,3.53,1.963,4.745
	c0.621,0.615,1.361,1.111,2.179,1.453L69.54,85L30.459,84.999z"/>
<path fill="none" stroke="#454B63" stroke-width="1.5" stroke-linecap="round" stroke-linejoin="round" stroke-miterlimit="10" d="
	M36.055,61.294c-2.396-0.108-4.378-2.752-4.917-6.286c-1.085,0.42-2.212,0.666-3.376,0.666c-1.795,0-3.51-0.529-5.088-1.48v1.479
	c0,1.686-0.679,3.212-1.785,4.313c-0.564,0.559-1.232,1.012-1.98,1.318L10,64.998h27.543C36.985,63.837,36.479,62.604,36.055,61.294
	z"/>
<path fill="none" stroke="#454B63" stroke-width="1.5" stroke-linecap="round" stroke-linejoin="round" stroke-miterlimit="10" d="
	M22.674,54.191L22.674,54.191c-3.417,3.419-7.8,5.267-12.268,5.588c2.945-4.751,4.675-10.331,4.675-16.331
	C16.674,48.351,19.38,52.205,22.674,54.191z"/>
<path fill="none" stroke="#454B63" stroke-width="1.5" stroke-linecap="round" stroke-linejoin="round" stroke-miterlimit="10" d="
	M86.332,31.556h0.027c1.844,0.651,3.17,2.391,3.17,4.458c0,4.045-2.053,7.321-4.609,7.436c-2.359,7.252-7.146,12.223-12.679,12.223
	c-1.168,0-2.297-0.232-3.384-0.648c0.095-0.613,0.158-1.246,0.158-1.905c0-2.274-1.461-4.188-3.485-4.907v-9.262
	c0-2.065-0.935-3.91-2.4-5.141c2.289-1.316,4.021-3.488,4.724-6.098c2.178,2.115,5.146,3.424,8.424,3.424
	c3.729,0,6.979,2.03,8.726,5.04C85.793,34.807,86.26,33.234,86.332,31.556z"/>
<path fill="none" stroke="#454B63" stroke-width="1.5" stroke-linecap="round" stroke-linejoin="round" stroke-miterlimit="10" d="
	M58.818,32.236c0.215,0,0.426,0.012,0.633,0.031c0.143,0.015,0.279,0.037,0.418,0.059c0.055,0.01,0.111,0.016,0.168,0.026
	c1.162,0.214,2.222,0.724,3.093,1.454l0,0c2.289-1.315,4.021-3.487,4.724-6.098c-2.269-2.198-3.677-5.272-3.677-8.674v-1.495
	c-3.657,2.551-6.054,6.781-6.054,11.574v2.019c0,0.385,0.027,0.765,0.07,1.139C58.398,32.251,58.605,32.236,58.818,32.236z"/>
<path fill="none" stroke="#454B63" stroke-width="1.5" stroke-linecap="round" stroke-linejoin="round" stroke-miterlimit="10" d="
	M63.946,61.294c-0.429,1.308-0.933,2.54-1.488,3.701L90,64.998l-8.909-3.694c-0.744-0.31-1.418-0.761-1.979-1.318
	c-1.103-1.104-1.787-2.632-1.787-4.315v-1.48c-1.578,0.951-3.291,1.48-5.082,1.48c-1.168,0-2.295-0.245-3.379-0.663
	C68.323,58.542,66.343,61.188,63.946,61.294z"/>
</svg>
