<?xml version="1.0" encoding="utf-8"?>
<!-- Generator: Adobe Illustrator 16.0.0, SVG Export Plug-In . SVG Version: 6.00 Build 0)  -->
<!DOCTYPE svg PUBLIC "-//W3C//DTD SVG 1.0//EN" "http://www.w3.org/TR/2001/REC-SVG-20010904/DTD/svg10.dtd">
<svg version="1.0" id="Layer_1" xmlns="http://www.w3.org/2000/svg" xmlns:xlink="http://www.w3.org/1999/xlink" x="0px" y="0px"
	 width="100px" height="100px" viewBox="8 8 84 84" enable-background="new 0 0 100 100" xml:space="preserve">
<circle fill="#F2E6DE" stroke="#333333" stroke-width="2" stroke-linecap="round" stroke-linejoin="round" stroke-miterlimit="10" cx="50" cy="50" r="40"/>
<path fill="#FAD05A" stroke="#333333" stroke-width="2" stroke-linecap="round" stroke-linejoin="round" stroke-miterlimit="10" d="
	M36.084,40.435c2.137,0,4.27-0.811,5.897-2.441c4.429,4.427,11.606,4.427,16.035,0c1.631,1.631,3.761,2.441,5.897,2.441v-2.402
	c0-7.685-6.229-13.915-13.917-13.915c-7.684,0-13.913,6.23-13.913,13.915v2.406V40.435z"/>
<path fill="#E2BD53" d="M49.997,24.118c-0.598,0-1.185,0.05-1.764,0.123c6.853,0.869,12.152,6.706,12.152,13.792v1.612
	c1.116,0.521,2.32,0.791,3.529,0.791v-2.402C63.914,30.348,57.686,24.118,49.997,24.118z"/>
<path fill="none" stroke="#333333" stroke-width="2" stroke-linecap="round" stroke-linejoin="round" stroke-miterlimit="10" d="
	M41.981,37.997c0-3.132,1.271-5.966,3.324-8.017C43.252,32.031,41.981,34.865,41.981,37.997z"/>
<path fill="#FCD3C9" stroke="#333333" stroke-width="2" stroke-linecap="round" stroke-linejoin="round" stroke-miterlimit="10" d="
	M36.084,40.435c2.137,0,4.27-0.811,5.897-2.441c4.429,4.427,11.606,4.427,16.035,0c1.631,1.631,3.761,2.441,5.897,2.441
	c1.813,0.647,3.119,2.359,3.119,4.395c0,3.986-2.022,7.218-4.542,7.328c-2.321,7.145-7.039,12.048-12.495,12.048
	c-5.454,0-10.171-4.903-12.493-12.048c-2.519-0.114-4.542-3.342-4.542-7.328c0-2.036,1.307-3.748,3.123-4.392V40.435z"/>
<path fill="#FFFFFF" stroke="#333333" stroke-width="2" stroke-linecap="round" stroke-linejoin="round" stroke-miterlimit="10" d="
	M49.997,75.232l-6.77-6.777l0,0c-0.554,0.552-1.216,0.996-1.952,1.302h-0.003l1.012,5.081l4.74,4.744L49.997,75.232z"/>
<path fill="#FFFFFF" stroke="#333333" stroke-width="2" stroke-linecap="round" stroke-linejoin="round" stroke-miterlimit="10" d="
	M49.997,75.232l6.775-6.777l0,0c0.555,0.552,1.216,0.996,1.952,1.302h0.003l-1.012,5.081l-4.74,4.744L49.997,75.232z"/>
<path fill="#3C485B" stroke="#333333" stroke-width="2" stroke-linecap="round" stroke-linejoin="round" stroke-miterlimit="10" d="
	M38.577,88.336l-2.698-5.396l2.354-2.354l-3.531-1.176l1.699-7.636l-14.976,6.204C26.11,82.766,31.989,86.376,38.577,88.336z"/>
<path fill="#3C485B" stroke="#333333" stroke-width="2" stroke-linecap="round" stroke-linejoin="round" stroke-miterlimit="10" d="
	M61.421,88.336l2.698-5.396l-2.354-2.354l3.531-1.176L63.6,71.775l14.975,6.204C73.889,82.766,68.013,86.376,61.421,88.336z"/>
<path fill="#FCD3C9" stroke="#333333" stroke-width="2" stroke-linecap="round" stroke-linejoin="round" stroke-miterlimit="10" d="
	M50,75.232l6.771-6.777c-1.089-1.088-1.764-2.592-1.764-4.252v-1.456c-1.553,0.938-3.242,1.459-5.008,1.459h-0.003
	c-1.767,0-3.453-0.521-5.009-1.459v1.456c0,1.66-0.674,3.164-1.761,4.252l6.77,6.777H50z"/>
<path fill="#EAC5BD" d="M44.581,66.364c1.704,0.885,3.522,1.373,5.416,1.373h0.005c1.891,0,3.711-0.488,5.415-1.371
	c-0.26-0.673-0.408-1.399-0.408-2.163v-1.456c-1.553,0.938-3.242,1.459-5.008,1.459h-0.003c-1.767,0-3.453-0.521-5.009-1.459v1.456
	C44.987,64.967,44.84,65.693,44.581,66.364z"/>
<polygon fill="#FFFFFF" stroke="#333333" stroke-width="2" stroke-linecap="round" stroke-linejoin="round" stroke-miterlimit="10" points="
	44.906,88.023 48.852,82.257 47.023,79.582 42.283,74.838 "/>
<path fill="#F15D53" stroke="#333333" stroke-width="2" stroke-linecap="round" stroke-linejoin="round" stroke-miterlimit="10" d="
	M44.906,88.023l3.946-5.767l1.145,1.673H50l1.146-1.673l3.945,5.767l-0.337,1.686c-1.56,0.187-3.146,0.292-4.758,0.292H50
	c-1.611,0-3.197-0.105-4.756-0.292L44.906,88.023z"/>
<polygon fill="#FFFFFF" stroke="#333333" stroke-width="2" stroke-linecap="round" stroke-linejoin="round" stroke-miterlimit="10" points="
	55.092,88.023 51.146,82.257 52.975,79.582 57.715,74.838 "/>
<polygon fill="#F15D53" stroke="#333333" stroke-width="2" stroke-linecap="round" stroke-linejoin="round" stroke-miterlimit="10" points="
	47.023,79.582 49.997,75.232 50,75.232 52.975,79.582 50,83.93 49.997,83.93 "/>
<polygon fill="#343F50" points="64.608,87.217 66.979,82.477 66.12,81.616 68.051,80.973 66.253,72.875 63.599,71.775 
	65.294,79.411 61.767,80.587 64.117,82.94 61.42,88.336 "/>
<polygon fill="#343F50" points="35.392,87.217 33.02,82.477 33.879,81.616 31.948,80.973 33.746,72.875 36.401,71.775 
	34.706,79.411 38.233,80.587 35.883,82.94 38.581,88.336 "/>
<path fill="#3C485B" stroke="#333333" stroke-width="2" stroke-linecap="round" stroke-linejoin="round" stroke-miterlimit="10" d="
	M45.244,89.709c-2.286-0.271-4.514-0.732-6.667-1.373l-2.698-5.396l2.354-2.354l-3.531-1.176l1.699-7.636l4.87-2.019L45.244,89.709z
	"/>
<path fill="#3C485B" stroke="#333333" stroke-width="2" stroke-linecap="round" stroke-linejoin="round" stroke-miterlimit="10" d="
	M54.755,89.709c2.289-0.271,4.514-0.732,6.666-1.373l2.698-5.396l-2.354-2.354l3.531-1.176L63.6,71.775l-4.873-2.019L54.755,89.709z
	"/>
<path fill="none" stroke="#333333" stroke-width="2" stroke-linecap="round" stroke-linejoin="round" stroke-miterlimit="10" d="
	M38.577,88.336l-2.698-5.396l2.354-2.354l-3.531-1.176l1.699-7.636l-14.976,6.204C26.11,82.766,31.989,86.376,38.577,88.336z"/>
<path fill="none" stroke="#333333" stroke-width="2" stroke-linecap="round" stroke-linejoin="round" stroke-miterlimit="10" d="
	M61.421,88.336l2.698-5.396l-2.354-2.354l3.531-1.176L63.6,71.775l14.975,6.204C73.889,82.766,68.013,86.376,61.421,88.336z"/>
<path fill="none" stroke="#333333" stroke-width="2" stroke-linecap="round" stroke-linejoin="round" stroke-miterlimit="10" d="
	M44.906,88.023l3.946-5.767l1.145,1.673H50l1.146-1.673l3.945,5.767l-0.337,1.686c-1.56,0.187-3.146,0.292-4.758,0.292H50
	c-1.611,0-3.197-0.105-4.756-0.292L44.906,88.023z"/>
<path fill="#EAC5BD" d="M38.424,40.101c-0.558,0.162-1.129,0.26-1.705,0.304c-0.209,0.021-0.42,0.034-0.635,0.034v0.002
	c-1.816,0.644-3.123,2.356-3.123,4.392c0,3.986,2.023,7.214,4.542,7.326c2.32,7.148,7.036,12.049,12.491,12.049
	c0.667,0,1.322-0.074,1.963-0.218C44.397,62.432,38.546,52.363,38.424,40.101z"/>
<path fill="none" stroke="#333333" stroke-width="2" stroke-linecap="round" stroke-linejoin="round" stroke-miterlimit="10" d="
	M36.084,40.435c2.137,0,4.27-0.811,5.897-2.441c4.429,4.427,11.606,4.427,16.035,0c1.631,1.631,3.761,2.441,5.897,2.441
	c1.813,0.647,3.119,2.359,3.119,4.395c0,3.986-2.022,7.218-4.542,7.328c-2.321,7.145-7.039,12.048-12.495,12.048
	c-5.454,0-10.171-4.903-12.493-12.048c-2.519-0.114-4.542-3.342-4.542-7.328c0-2.036,1.307-3.748,3.123-4.392V40.435z"/>
<path fill="none" stroke="#333333" stroke-width="2" stroke-linecap="round" stroke-linejoin="round" stroke-miterlimit="10" d="
	M50,75.232l6.771-6.777c-1.089-1.088-1.764-2.592-1.764-4.252v-1.456c-1.553,0.938-3.242,1.459-5.008,1.459h-0.003
	c-1.767,0-3.453-0.521-5.009-1.459v1.456c0,1.66-0.674,3.164-1.761,4.252l6.77,6.777H50z"/>
<path fill="none" stroke="#333333" stroke-width="2" stroke-linecap="round" stroke-linejoin="round" stroke-miterlimit="10" d="
	M36.084,40.435c2.137,0,4.27-0.811,5.897-2.441c4.429,4.427,11.606,4.427,16.035,0c1.631,1.631,3.761,2.441,5.897,2.441v-2.402
	c0-7.685-6.229-13.915-13.917-13.915c-7.684,0-13.913,6.23-13.913,13.915v2.406V40.435z"/>
</svg>
